<svg width="50" height="50" viewBox="0 0 50 50" fill="none" xmlns="http://www.w3.org/2000/svg"><path d="M25.0001 16.4374L22.771 20.3124C22.271 21.1665 22.6876 21.8749 23.6668 21.8749H26.3126C27.3126 21.8749 27.7085 22.5832 27.2085 23.4374L25.0001 27.3124" stroke="white" stroke-width="1.5" stroke-linecap="round" stroke-linejoin="round"></path><path d="M17.2917 37.5832V35.1665C12.5 32.2707 8.5625 26.6249 8.5625 20.6249C8.5625 10.3124 18.0417 2.22902 28.75 4.56236C33.4583 5.60402 37.5833 8.72902 39.7292 13.0415C44.0833 21.7915 39.5 31.0832 32.7708 35.1457V37.5624C32.7708 38.1665 33 39.5624 30.7708 39.5624H19.2917C17 39.5832 17.2917 38.6874 17.2917 37.5832Z" stroke="white" stroke-width="1.5" stroke-linecap="round" stroke-linejoin="round"></path><path d="M17.708 45.8333C22.4788 44.4791 27.5205 44.4791 32.2913 45.8333" stroke="white" stroke-width="1.5" stroke-linecap="round" stroke-linejoin="round"></path></svg>