<svg width="100" height="90" viewBox="0 0 132 124" fill="none" xmlns="http://www.w3.org/2000/svg"><ellipse cx="93.0697" cy="38.3731" rx="38.3041" ry="38.2463" fill="black" fill-opacity="0.04"></ellipse><path d="M62.4167 89.0467L44.7617 71.3917" stroke="#FF0000" stroke-width="1.5" stroke-miterlimit="10" stroke-linecap="round" stroke-linejoin="round"></path><path d="M62.239 71.57L44.584 89.225" stroke="#FF0000" stroke-width="1.5" stroke-miterlimit="10" stroke-linecap="round" stroke-linejoin="round"></path><path d="M44.5827 43.75H62.416C71.3327 43.75 71.3327 39.2917 71.3327 34.8334C71.3327 25.9167 66.8744 25.9167 62.416 25.9167H44.5827C40.1243 25.9167 35.666 25.9167 35.666 34.8334C35.666 43.75 40.1243 43.75 44.5827 43.75Z" stroke="#FF0000" stroke-width="1.5" stroke-miterlimit="10" stroke-linecap="round" stroke-linejoin="round"></path><path d="M71.3333 34.9225C86.1796 35.725 93.625 41.2087 93.625 61.5833V88.3333C93.625 106.167 89.1667 115.083 66.875 115.083H40.125C17.8333 115.083 13.375 106.167 13.375 88.3333V61.5833C13.375 41.2533 20.8204 35.725 35.6667 34.9225" stroke="#FF0000" stroke-width="1.5" stroke-miterlimit="10" stroke-linecap="round" stroke-linejoin="round"></path></svg>