<svg width="100" height="90" viewBox="0 0 132 124" fill="none" xmlns="http://www.w3.org/2000/svg"><ellipse cx="93.0697" cy="38.3731" rx="38.3041" ry="38.2463" fill="black" fill-opacity="0.04"></ellipse><path d="M75.791 76.7417V90.1167C75.791 107.95 68.6577 115.083 50.8243 115.083H33.8827C16.0493 115.083 8.91602 107.95 8.91602 90.1167V73.175C8.91602 55.3417 16.0493 48.2083 33.8827 48.2083H47.2577" stroke="#212529" stroke-width="1.5" stroke-linecap="round" stroke-linejoin="round"></path><path d="M75.7911 76.7417H61.5245C50.8245 76.7417 47.2578 73.175 47.2578 62.475V48.2083L75.7911 76.7417Z" stroke="#212529" stroke-width="1.5" stroke-linecap="round" stroke-linejoin="round"></path><path d="M51.7168 25.9167H69.5501" stroke="#212529" stroke-width="1.5" stroke-linecap="round" stroke-linejoin="round"></path><path d="M31.209 39.2917C31.209 31.8908 37.1832 25.9167 44.584 25.9167H56.2648" stroke="#212529" stroke-width="1.5" stroke-linecap="round" stroke-linejoin="round"></path><path d="M98.0826 52.6667V80.2637C98.0826 87.1742 92.4651 92.7917 85.5547 92.7917" stroke="#212529" stroke-width="1.5" stroke-linecap="round" stroke-linejoin="round"></path><path d="M98.084 52.6667H84.709C74.6777 52.6667 71.334 49.3229 71.334 39.2917V25.9167L98.084 52.6667Z" stroke="#212529" stroke-width="1.5" stroke-linecap="round" stroke-linejoin="round"></path></svg>