<svg width="30" height="30" viewBox="0 0 30 30" fill="none" xmlns="http://www.w3.org/2000/svg"><g clip-path="url(#clip0_93_62)"><path d="M15 2.50708C8.09625 2.50708 2.5 8.10333 2.5 15.0071C2.5 21.2458 7.07125 26.4171 13.0475 27.3558V18.6196H9.8725V15.0071H13.0475V12.2533C13.0475 9.12083 14.9125 7.39083 17.7688 7.39083C19.1363 7.39083 20.5662 7.63458 20.5662 7.63458V10.7096H18.9913C17.4375 10.7096 16.9538 11.6733 16.9538 12.6621V15.0071H20.42L19.8663 18.6196H16.9538V27.3558C22.9288 26.4183 27.5 21.2446 27.5 15.0071C27.5 8.10333 21.9038 2.50708 15 2.50708Z" fill="white"></path></g><defs><clipPath id="clip0_93_62"><rect width="30" height="30" fill="white"></rect></clipPath></defs></svg>