<svg width="50" height="50" viewBox="0 0 50 50" fill="none" xmlns="http://www.w3.org/2000/svg"><path d="M19.0833 22.6457C18.875 22.6249 18.625 22.6249 18.3958 22.6457C13.4375 22.4791 9.5 18.4166 9.5 13.4166C9.5 8.3124 13.625 4.16656 18.75 4.16656C23.8542 4.16656 28 8.3124 28 13.4166C27.9792 18.4166 24.0417 22.4791 19.0833 22.6457Z" stroke="white" stroke-width="1.5" stroke-linecap="round" stroke-linejoin="round"></path><path d="M34.1878 8.33319C38.2295 8.33319 41.4795 11.604 41.4795 15.6249C41.4795 19.5624 38.3545 22.7707 34.4587 22.9165C34.292 22.8957 34.1045 22.8957 33.917 22.9165" stroke="white" stroke-width="1.5" stroke-linecap="round" stroke-linejoin="round"></path><path d="M8.66699 30.3333C3.62533 33.7083 3.62533 39.2083 8.66699 42.5624C14.3962 46.3958 23.792 46.3958 29.5212 42.5624C34.5628 39.1874 34.5628 33.6874 29.5212 30.3333C23.8128 26.5208 14.417 26.5208 8.66699 30.3333Z" stroke="white" stroke-width="1.5" stroke-linecap="round" stroke-linejoin="round"></path><path d="M38.208 41.6665C39.708 41.354 41.1247 40.7498 42.2913 39.854C45.5413 37.4165 45.5413 33.3957 42.2913 30.9582C41.1455 30.0832 39.7497 29.4998 38.2705 29.1665" stroke="white" stroke-width="1.5" stroke-linecap="round" stroke-linejoin="round"></path></svg>