<svg width="50" height="50" viewBox="0 0 50 50" fill="none" xmlns="http://www.w3.org/2000/svg"><path d="M27.7081 17.1945L30.4581 22.5517C30.8331 23.2823 31.8331 24.0128 32.6664 24.1345L37.6456 24.9462C40.8331 25.4738 41.5831 27.706 39.2914 29.9381L35.4164 33.7125C34.7706 34.3416 34.3956 35.5794 34.6039 36.4723L35.7081 41.1598C36.5831 44.853 34.5623 46.2938 31.2081 44.366L26.5414 41.6671C25.6872 41.1801 24.3123 41.1801 23.4581 41.6671L18.7914 44.366C15.4372 46.2938 13.4164 44.853 14.2914 41.1598L15.3956 36.4723C15.604 35.5997 15.2289 34.3619 14.5831 33.7125L10.7081 29.9381C8.41646 27.706 9.16642 25.4535 12.3539 24.9462L17.3331 24.1345C18.1664 23.9925 19.1664 23.2823 19.5414 22.5517L22.2915 17.1945C23.7706 14.2927 26.2289 14.2927 27.7081 17.1945Z" stroke="white" stroke-width="1.5" stroke-linecap="round" stroke-linejoin="round"></path><path d="M12.5 19.0005V4.7959" stroke="white" stroke-width="1.5" stroke-linecap="round" stroke-linejoin="round"></path><path d="M37.5 19.0005V4.7959" stroke="white" stroke-width="1.5" stroke-linecap="round" stroke-linejoin="round"></path><path d="M25 8.85437V4.7959" stroke="white" stroke-width="1.5" stroke-linecap="round" stroke-linejoin="round"></path></svg>