<svg width="64" height="64" viewBox="0 0 64 64" fill="none" xmlns="http://www.w3.org/2000/svg"><path d="M23.9201 58.6667H39.9201C53.2534 58.6667 58.5867 53.3334 58.5867 40V24C58.5867 10.6667 53.2534 5.33337 39.9201 5.33337H23.9201C10.5868 5.33337 5.25342 10.6667 5.25342 24V40C5.25342 53.3334 10.5868 58.6667 23.9201 58.6667Z" stroke="#FF0000" stroke-width="1.5" stroke-linecap="round" stroke-linejoin="round"></path><path d="M5.25342 33.8667L21.2534 33.8133C23.2534 33.8133 25.4934 35.3333 26.2401 37.2L29.2801 44.88C29.9734 46.6133 31.0668 46.6133 31.7601 44.88L37.8668 29.3867C38.4534 27.8933 39.5468 27.84 40.2934 29.2533L43.0668 34.5067C43.8934 36.08 46.0268 37.36 47.7868 37.36H58.6134" stroke="#FF0000" stroke-width="1.5" stroke-linecap="round" stroke-linejoin="round"></path></svg>