<svg width="64" height="64" viewBox="0 0 64 64" fill="none" xmlns="http://www.w3.org/2000/svg"><path d="M24.4268 28.9866C24.1602 28.96 23.8402 28.96 23.5468 28.9866C17.2002 28.7733 12.1602 23.5733 12.1602 17.1733C12.1602 10.64 17.4402 5.33331 24.0002 5.33331C30.5335 5.33331 35.8402 10.64 35.8402 17.1733C35.8135 23.5733 30.7735 28.7733 24.4268 28.9866Z" stroke="#FF0000" stroke-width="1.5" stroke-linecap="round" stroke-linejoin="round"></path><path d="M43.7602 10.6667C48.9336 10.6667 53.0936 14.8534 53.0936 20C53.0936 25.04 49.0936 29.1467 44.1069 29.3334C43.8936 29.3067 43.6536 29.3067 43.4136 29.3334" stroke="#FF0000" stroke-width="1.5" stroke-linecap="round" stroke-linejoin="round"></path><path d="M11.0934 38.8267C4.64008 43.1467 4.64008 50.1867 11.0934 54.48C18.4268 59.3867 30.4534 59.3867 37.7868 54.48C44.2401 50.16 44.2401 43.12 37.7868 38.8267C30.4801 33.9467 18.4534 33.9467 11.0934 38.8267Z" stroke="#FF0000" stroke-width="1.5" stroke-linecap="round" stroke-linejoin="round"></path><path d="M48.9067 53.3333C50.8267 52.9333 52.6401 52.16 54.1334 51.0133C58.2934 47.8933 58.2934 42.7466 54.1334 39.6266C52.6667 38.5066 50.8801 37.76 48.9867 37.3333" stroke="#FF0000" stroke-width="1.5" stroke-linecap="round" stroke-linejoin="round"></path></svg>