<svg width="64" height="64" viewBox="0 0 64 64" fill="none" xmlns="http://www.w3.org/2000/svg"><path d="M14.5601 49.3067V41.52C14.5601 38.9333 16.5868 36.6133 19.4668 36.6133C22.0535 36.6133 24.3735 38.64 24.3735 41.52V49.0133C24.3735 54.2133 20.0535 58.5333 14.8535 58.5333C9.65346 58.5333 5.33346 54.1867 5.33346 49.0133V32.5867C5.04013 17.6 16.8801 5.46667 31.8668 5.46667C46.8535 5.46667 58.6668 17.6 58.6668 32.2933V48.72C58.6668 53.92 54.3468 58.24 49.1468 58.24C43.9468 58.24 39.6268 53.92 39.6268 48.72V41.2267C39.6268 38.64 41.6535 36.32 44.5335 36.32C47.1201 36.32 49.4401 38.3467 49.4401 41.2267V49.3067" stroke="#FF0000" stroke-width="1.5" stroke-linecap="round" stroke-linejoin="round"></path></svg>