<svg width="64" height="64" viewBox="0 0 38 38" fill="none" xmlns="http://www.w3.org/2000/svg"><path d="M30.0827 14.25C30.0827 16.5458 29.4018 18.6517 28.2302 20.4092C26.5202 22.9425 23.8127 24.7317 20.6618 25.1908C20.1235 25.2858 19.5693 25.3333 18.9993 25.3333C18.4293 25.3333 17.8752 25.2858 17.3368 25.1908C14.186 24.7317 11.4785 22.9425 9.76852 20.4092C8.59685 18.6517 7.91602 16.5458 7.91602 14.25C7.91602 8.1225 12.8718 3.16667 18.9993 3.16667C25.1268 3.16667 30.0827 8.1225 30.0827 14.25Z" stroke="#FF0000" stroke-width="1.5" stroke-linecap="round" stroke-linejoin="round"></path><path d="M33.6465 29.2442L31.034 29.8616C30.4482 30.0041 29.989 30.4475 29.8624 31.0333L29.3082 33.3608C29.0074 34.6275 27.3924 35.0075 26.5532 34.01L19.0007 25.3333L11.4482 34.0258C10.609 35.0233 8.99403 34.6433 8.69319 33.3766L8.13903 31.0491C7.99653 30.4633 7.53736 30.0042 6.96736 29.8775L4.35486 29.26C3.15153 28.975 2.72403 27.4708 3.59486 26.6L9.76986 20.425C11.4799 22.9583 14.1874 24.7475 17.3382 25.2067C17.8765 25.3017 18.4307 25.3492 19.0007 25.3492C19.5707 25.3492 20.1249 25.3017 20.6632 25.2067C23.814 24.7475 26.5215 22.9583 28.2315 20.425L34.4065 26.6C35.2774 27.455 34.8499 28.9592 33.6465 29.2442Z" stroke="#FF0000" stroke-width="1.5" stroke-linecap="round" stroke-linejoin="round"></path><path d="M19.9181 9.46833L20.8523 11.3367C20.979 11.59 21.3115 11.8433 21.6123 11.8908L23.3065 12.1758C24.3831 12.35 24.6365 13.1417 23.8606 13.9175L22.5465 15.2316C22.3248 15.4533 22.1981 15.8808 22.2773 16.1975L22.6573 17.8283C22.9581 19.1108 22.2773 19.6175 21.1373 18.9366L19.554 18.0025C19.269 17.8283 18.794 17.8283 18.509 18.0025L16.9256 18.9366C15.7856 19.6016 15.1048 19.1108 15.4056 17.8283L15.7856 16.1975C15.849 15.8967 15.7381 15.4533 15.5165 15.2316L14.2023 13.9175C13.4265 13.1417 13.6798 12.3658 14.7565 12.1758L16.4506 11.8908C16.7356 11.8433 17.0681 11.59 17.1948 11.3367L18.129 9.46833C18.5881 8.455 19.4115 8.455 19.9181 9.46833Z" stroke="#FF0000" stroke-width="1.5" stroke-linecap="round" stroke-linejoin="round"></path></svg>