<svg width="32" height="32" viewBox="0 0 32 32" fill="none" xmlns="http://www.w3.org/2000/svg"><path d="M16.4932 2.86668L28.4932 7.66665C28.9598 7.85332 29.3332 8.41331 29.3332 8.90664V13.3333C29.3332 14.0666 28.7332 14.6667 27.9998 14.6667H3.99984C3.2665 14.6667 2.6665 14.0666 2.6665 13.3333V8.90664C2.6665 8.41331 3.03984 7.85332 3.50651 7.66665L15.5065 2.86668C15.7732 2.76002 16.2265 2.76002 16.4932 2.86668Z" stroke="#FF0000" stroke-width="1.5" stroke-miterlimit="10" stroke-linecap="round" stroke-linejoin="round"></path><path d="M29.3332 29.3333H2.6665V25.3333C2.6665 24.6 3.2665 24 3.99984 24H27.9998C28.7332 24 29.3332 24.6 29.3332 25.3333V29.3333Z" stroke="#FF0000" stroke-width="1.5" stroke-miterlimit="10" stroke-linecap="round" stroke-linejoin="round"></path><path d="M5.3335 24V14.6667" stroke="#FF0000" stroke-width="1.5" stroke-miterlimit="10" stroke-linecap="round" stroke-linejoin="round"></path><path d="M10.6665 24V14.6667" stroke="#FF0000" stroke-width="1.5" stroke-miterlimit="10" stroke-linecap="round" stroke-linejoin="round"></path><path d="M16 24V14.6667" stroke="#FF0000" stroke-width="1.5" stroke-miterlimit="10" stroke-linecap="round" stroke-linejoin="round"></path><path d="M21.3335 24V14.6667" stroke="#FF0000" stroke-width="1.5" stroke-miterlimit="10" stroke-linecap="round" stroke-linejoin="round"></path><path d="M26.6665 24V14.6667" stroke="#FF0000" stroke-width="1.5" stroke-miterlimit="10" stroke-linecap="round" stroke-linejoin="round"></path><path d="M1.3335 29.3333H30.6668" stroke="#FF0000" stroke-width="1.5" stroke-miterlimit="10" stroke-linecap="round" stroke-linejoin="round"></path><path d="M16 11.3333C17.1046 11.3333 18 10.4379 18 9.33331C18 8.22874 17.1046 7.33331 16 7.33331C14.8954 7.33331 14 8.22874 14 9.33331C14 10.4379 14.8954 11.3333 16 11.3333Z" stroke="#FF0000" stroke-width="1.5" stroke-miterlimit="10" stroke-linecap="round" stroke-linejoin="round"></path></svg>