<svg width="32" height="32" viewBox="0 0 32 32" fill="none" xmlns="http://www.w3.org/2000/svg"><path d="M21.3335 30.3333H10.6668C6.64016 30.3333 4.3335 28.0267 4.3335 24V11C4.3335 6.79999 6.46683 4.66666 10.6668 4.66666C11.2135 4.66666 11.6668 5.11999 11.6668 5.66666C11.6668 6.19999 11.8802 6.70665 12.2535 7.07999C12.6268 7.45332 13.1335 7.66666 13.6668 7.66666H18.3335C19.4402 7.66666 20.3335 6.77332 20.3335 5.66666C20.3335 5.11999 20.7868 4.66666 21.3335 4.66666C25.5335 4.66666 27.6668 6.79999 27.6668 11V24C27.6668 28.0267 25.3602 30.3333 21.3335 30.3333ZM9.80013 6.69333C7.69346 6.86666 6.3335 7.81332 6.3335 11V24C6.3335 26.96 7.70683 28.3333 10.6668 28.3333H21.3335C24.2935 28.3333 25.6668 26.96 25.6668 24V11C25.6668 7.81332 24.3069 6.88 22.2002 6.69333C21.7469 8.4 20.1868 9.66666 18.3335 9.66666H13.6668C12.6002 9.66666 11.6002 9.25332 10.8402 8.49332C10.3335 7.98665 9.9868 7.37333 9.80013 6.69333Z" fill="#FF0000"></path><path d="M18.3332 9.66666H13.6665C12.5998 9.66666 11.5998 9.25332 10.8398 8.49332C10.0798 7.73332 9.6665 6.73332 9.6665 5.66666C9.6665 3.46666 11.4665 1.66666 13.6665 1.66666H18.3332C19.3998 1.66666 20.3998 2.08 21.1598 2.84C21.9198 3.6 22.3332 4.59999 22.3332 5.66666C22.3332 7.86666 20.5332 9.66666 18.3332 9.66666ZM13.6665 3.66666C12.5598 3.66666 11.6665 4.55999 11.6665 5.66666C11.6665 6.19999 11.8798 6.70665 12.2532 7.07999C12.6265 7.45332 13.1332 7.66666 13.6665 7.66666H18.3332C19.4398 7.66666 20.3332 6.77332 20.3332 5.66666C20.3332 5.13332 20.1198 4.62666 19.7465 4.25333C19.3732 3.87999 18.8665 3.66666 18.3332 3.66666H13.6665Z" fill="#FF0000"></path><path d="M15.9998 18.3333H10.6665C10.1198 18.3333 9.6665 17.88 9.6665 17.3333C9.6665 16.7867 10.1198 16.3333 10.6665 16.3333H15.9998C16.5465 16.3333 16.9998 16.7867 16.9998 17.3333C16.9998 17.88 16.5465 18.3333 15.9998 18.3333Z" fill="#FF0000"></path><path d="M21.3332 23.6667H10.6665C10.1198 23.6667 9.6665 23.2133 9.6665 22.6667C9.6665 22.12 10.1198 21.6667 10.6665 21.6667H21.3332C21.8798 21.6667 22.3332 22.12 22.3332 22.6667C22.3332 23.2133 21.8798 23.6667 21.3332 23.6667Z" fill="#FF0000"></path></svg>