<svg width="32" height="32" viewBox="0 0 32 32" fill="none" xmlns="http://www.w3.org/2000/svg"><path d="M19.9998 30.3333H11.9998C4.75984 30.3333 1.6665 27.24 1.6665 20V12C1.6665 4.76001 4.75984 1.66667 11.9998 1.66667H18.6665C19.2132 1.66667 19.6665 2.12001 19.6665 2.66667C19.6665 3.21334 19.2132 3.66667 18.6665 3.66667H11.9998C5.85317 3.66667 3.6665 5.85334 3.6665 12V20C3.6665 26.1467 5.85317 28.3333 11.9998 28.3333H19.9998C26.1465 28.3333 28.3332 26.1467 28.3332 20V13.3333C28.3332 12.7867 28.7865 12.3333 29.3332 12.3333C29.8798 12.3333 30.3332 12.7867 30.3332 13.3333V20C30.3332 27.24 27.2398 30.3333 19.9998 30.3333Z" fill="#FF0000"></path><path d="M29.3332 14.3333H23.9998C19.4398 14.3333 17.6665 12.56 17.6665 8.00001V2.66667C17.6665 2.26667 17.9065 1.89334 18.2798 1.74667C18.6532 1.58667 19.0798 1.68001 19.3732 1.96001L30.0398 12.6267C30.3198 12.9067 30.4132 13.3467 30.2532 13.72C30.0932 14.0933 29.7332 14.3333 29.3332 14.3333ZM19.6665 5.08001V8.00001C19.6665 11.44 20.5598 12.3333 23.9998 12.3333H26.9198L19.6665 5.08001Z" fill="#FF0000"></path><path d="M17.3335 18.3333H9.3335C8.78683 18.3333 8.3335 17.88 8.3335 17.3333C8.3335 16.7867 8.78683 16.3333 9.3335 16.3333H17.3335C17.8802 16.3333 18.3335 16.7867 18.3335 17.3333C18.3335 17.88 17.8802 18.3333 17.3335 18.3333Z" fill="#FF0000"></path><path d="M14.6668 23.6667H9.3335C8.78683 23.6667 8.3335 23.2133 8.3335 22.6667C8.3335 22.12 8.78683 21.6667 9.3335 21.6667H14.6668C15.2135 21.6667 15.6668 22.12 15.6668 22.6667C15.6668 23.2133 15.2135 23.6667 14.6668 23.6667Z" fill="#FF0000"></path></svg>