<svg width="32" height="32" viewBox="0 0 32 32" fill="none" xmlns="http://www.w3.org/2000/svg"><path d="M25.4132 24.8933L22.5599 19.2L19.7065 24.8933" stroke="#FF0000" stroke-width="1.5" stroke-linecap="round" stroke-linejoin="round"></path><path d="M20.2266 23.88H24.9199" stroke="#FF0000" stroke-width="1.5" stroke-linecap="round" stroke-linejoin="round"></path><path d="M22.56 29.3333C18.8266 29.3333 15.7866 26.3067 15.7866 22.56C15.7866 18.8267 18.8133 15.7867 22.56 15.7867C26.2933 15.7867 29.3333 18.8133 29.3333 22.56C29.3333 26.3067 26.3066 29.3333 22.56 29.3333Z" stroke="#FF0000" stroke-width="1.5" stroke-linecap="round" stroke-linejoin="round"></path><path d="M6.69318 2.66666H11.9198C14.6798 2.66666 16.0132 4.00002 15.9465 6.69335V11.92C16.0132 14.68 14.6798 16.0134 11.9198 15.9467H6.69318C3.99984 16 2.6665 14.6666 2.6665 11.9066V6.68C2.6665 4 3.99984 2.66666 6.69318 2.66666Z" stroke="#FF0000" stroke-width="1.5" stroke-linecap="round" stroke-linejoin="round"></path><path d="M12.0134 7.79996H6.6001" stroke="#FF0000" stroke-width="1.5" stroke-linecap="round" stroke-linejoin="round"></path><path d="M9.29346 6.89331V7.79997" stroke="#FF0000" stroke-width="1.5" stroke-linecap="round" stroke-linejoin="round"></path><path d="M10.6536 7.78671C10.6536 10.12 8.82691 12.0134 6.58691 12.0134" stroke="#FF0000" stroke-width="1.5" stroke-linecap="round" stroke-linejoin="round"></path><path d="M12.0135 12.0133C11.0402 12.0133 10.1602 11.4933 9.54688 10.6667" stroke="#FF0000" stroke-width="1.5" stroke-linecap="round" stroke-linejoin="round"></path><path d="M2.6665 20C2.6665 25.16 6.83984 29.3333 11.9998 29.3333L10.5998 27" stroke="#FF0000" stroke-width="1.5" stroke-linecap="round" stroke-linejoin="round"></path><path d="M29.3333 12C29.3333 6.83999 25.16 2.66666 20 2.66666L21.4 4.99999" stroke="#FF0000" stroke-width="1.5" stroke-linecap="round" stroke-linejoin="round"></path></svg>