<svg width="22" height="22" viewBox="0 0 22 22" fill="none" xmlns="http://www.w3.org/2000/svg"><path d="M22 16.5C22 17.1483 21.7425 17.7701 21.284 18.2285C20.8256 18.6869 20.2039 18.9444 19.5556 18.9444H2.44444C1.79614 18.9444 1.17438 18.6869 0.715961 18.2285C0.257539 17.7701 0 17.1483 0 16.5V5.5C0 4.85169 0.257539 4.22994 0.715961 3.77152C1.17438 3.3131 1.79614 3.05556 2.44444 3.05556H19.5556C20.2039 3.05556 20.8256 3.3131 21.284 3.77152C21.7425 4.22994 22 4.85169 22 5.5V16.5Z" fill="#E30917"></path><path d="M9.77773 14.6667C8.80527 14.6667 7.87264 14.2804 7.18501 13.5927C6.49738 12.9051 6.11107 11.9725 6.11107 11C6.11107 10.0275 6.49738 9.09491 7.18501 8.40728C7.87264 7.71964 8.80527 7.33333 9.77773 7.33333C10.5783 7.33333 11.3177 7.59306 11.9209 8.02878C11.5004 7.55042 10.9827 7.16722 10.4024 6.90472C9.82205 6.64223 9.19244 6.50647 8.55551 6.5065C7.36376 6.5065 6.22082 6.97992 5.37813 7.82262C4.53543 8.66531 4.06201 9.80825 4.06201 11C4.06193 11.5901 4.1781 12.1745 4.40388 12.7198C4.62967 13.265 4.96064 13.7605 5.37791 14.1778C5.79518 14.5951 6.29057 14.9261 6.83578 15.152C7.381 15.3779 7.96537 15.4941 8.55551 15.4941C9.8969 15.4941 11.0977 14.9032 11.9209 13.9712C11.2979 14.4236 10.5477 14.6671 9.77773 14.6667ZM12.169 11.1406L13.6601 11.484L13.7946 13.0075L14.5817 11.6961L16.0728 12.0389L15.0681 10.8851L15.8546 9.57306L14.4472 10.1719L13.4426 9.01756L13.577 10.5417L12.169 11.1406Z" fill="#EEEEEE"></path></svg>